<svg width="20" height="20" viewBox="0 0 20 20" fill="none" xmlns="http://www.w3.org/2000/svg">
<path d="M18.6633 16.771C18.6633 16.771 17.5047 17.909 17.2207 18.2427C16.7582 18.7363 16.2132 18.9693 15.4988 18.9693C15.4301 18.9693 15.3568 18.9693 15.2881 18.9648C13.9279 18.8779 12.6639 18.3478 11.7159 17.8953C9.12384 16.643 6.84773 14.8652 4.95631 12.612C3.39463 10.7336 2.35046 8.99687 1.65893 7.13217C1.23302 5.99415 1.07731 5.1075 1.146 4.27113C1.1918 3.7364 1.39789 3.29308 1.778 2.91374L3.33968 1.35526C3.56408 1.14502 3.80223 1.03076 4.03579 1.03076C4.32431 1.03076 4.55788 1.20443 4.70443 1.35069C4.70901 1.35526 4.71359 1.35983 4.71817 1.3644C4.99753 1.62491 5.26315 1.89456 5.54251 2.18249C5.68448 2.32874 5.83103 2.47499 5.97758 2.62581L7.22784 3.87351C7.71329 4.35797 7.71329 4.80586 7.22784 5.29032C7.09503 5.42286 6.9668 5.5554 6.83399 5.68337C6.44929 6.07642 6.75149 5.77483 6.35306 6.13132C6.3439 6.14046 6.33474 6.14503 6.33016 6.15417C5.9363 6.54722 6.00958 6.93113 6.09201 7.19164C6.09659 7.20535 6.10117 7.21906 6.10575 7.23277C6.43091 8.01887 6.88888 8.75926 7.585 9.64134L7.58958 9.64591C8.85357 11.1998 10.1863 12.411 11.6563 13.3387C11.8441 13.4576 12.0365 13.5536 12.2197 13.645C12.3845 13.7272 12.5402 13.8049 12.673 13.8872C12.6914 13.8963 12.7097 13.91 12.728 13.9192C12.8837 13.9969 13.0303 14.0334 13.1814 14.0334C13.5615 14.0334 13.7996 13.7958 13.8775 13.7181L14.7752 12.8222C14.9309 12.6668 15.1782 12.4795 15.4667 12.4795C15.7507 12.4795 15.9842 12.6577 16.1262 12.8131C16.1308 12.8177 16.1308 12.8177 16.1354 12.8222L18.6588 15.3405C19.1305 15.8067 18.6633 16.771 18.6633 16.771Z" stroke="#3E4E5E" stroke-width="1.4" stroke-linecap="round" stroke-linejoin="round"/>
</svg>
