<svg width="21" height="18" viewBox="0 0 21 18" fill="none" xmlns="http://www.w3.org/2000/svg">
<path d="M17.6624 4.9644C17.8592 5.14773 18.0664 5.34086 18.2437 5.56415C20.0156 7.67985 21 8.86994 21 9.20051C21 9.53109 20.0812 10.7212 18.2437 12.8369C16.6249 14.7007 14.395 15.8462 11.6436 16.3185C10.8871 16.4484 10.1123 16.454 9.35626 16.3215C8.37872 16.1502 7.4861 15.8838 6.6281 15.5476L7.61248 14.5559C8.4656 14.8865 9.44998 15.0848 10.5 15.1509C12.7969 15.0187 14.8312 14.1592 16.3406 12.7708C17.85 11.3823 18.9 10.1922 19.4906 9.20051C18.9656 8.27489 17.9156 7.08481 16.4062 5.69638L17.3906 4.70465C17.4758 4.79048 17.5679 4.87631 17.6624 4.9644Z" fill="#8E8E93"/>
<path d="M7.61248 14.5559C8.4656 14.8865 9.44998 15.0848 10.5 15.1509C12.7969 15.0187 14.8312 14.1592 16.3406 12.7708C17.85 11.3823 18.9 10.1922 19.4906 9.20051C18.9656 8.27489 17.9156 7.08481 16.4062 5.69638L14.6996 7.34895C14.9621 7.87788 15.0934 8.53903 15.0934 9.20019C15.0934 10.5225 14.634 11.6465 13.7809 12.506C12.8621 13.3655 11.8121 13.8283 10.4996 13.8283C9.84336 13.8283 9.25273 13.6961 8.66211 13.4316L7.61248 14.5559Z" fill="#8E8E93"/>
<path d="M4.725 12.7708C3.15 11.3162 2.1 10.1261 1.575 9.20051C2.16563 8.20878 3.21562 7.0187 4.725 5.63027C6.23438 4.24184 8.20312 3.38233 10.5 3.2501C11.8125 3.31622 13.0594 3.64679 14.1094 4.17572L12.9937 5.29969C12.2719 4.83688 11.4844 4.57241 10.5 4.57241C9.1875 4.57241 8.1375 5.03522 7.21875 5.89473C6.3 6.75423 5.90625 7.8782 5.90625 9.20051C5.90625 10.1922 6.16875 11.0518 6.62813 11.779L5.25 13.2336C5.05312 13.1013 4.85625 12.903 4.725 12.7708Z" fill="#8E8E93"/>
<path d="M7.6125 10.7873C7.35 10.3245 7.21875 9.79556 7.21875 9.20051C7.21875 8.27489 7.54688 7.48151 8.20312 6.88646C8.85938 6.29142 9.58125 5.89473 10.5 5.89473C11.0906 5.89473 11.6156 6.02696 12.0094 6.29142L7.6125 10.7873Z" fill="#8E8E93"/>
<path d="M9.71211 12.3737C9.97461 12.4399 10.2371 12.506 10.4996 12.506C11.4184 12.506 12.1402 12.1093 12.7965 11.5142C13.4527 10.9192 13.7809 10.1258 13.7809 9.20019C13.7809 8.93573 13.7152 8.67127 13.6496 8.4068L9.71211 12.3737Z" fill="#8E8E93"/>
<path fill-rule="evenodd" clip-rule="evenodd" d="M10.5 3.2501C11.8125 3.31622 13.0594 3.64679 14.1094 4.17572L15.0938 3.18398C14.1046 2.68569 13.0036 2.33762 11.7626 2.11146C10.928 1.95936 10.0711 1.95348 9.23612 2.10362C6.53995 2.58842 4.35138 3.72752 2.75625 5.56415C0.91875 7.67985 0 8.86994 0 9.20051C0 9.53109 0.984375 10.7212 2.75625 12.8369C3.21562 13.3658 3.675 13.8286 4.26562 14.2253L5.25 13.2336C5.05312 13.1013 4.85625 12.903 4.725 12.7708C3.15 11.3162 2.1 10.1261 1.575 9.20051C2.16563 8.20878 3.21562 7.0187 4.725 5.63027C6.23438 4.24184 8.20312 3.38233 10.5 3.2501Z" fill="#8E8E93"/>
<path d="M4.27253 16.8746L19.1733 1.97384C19.4076 1.73953 19.4076 1.35963 19.1733 1.12531C18.939 0.890999 18.5591 0.890999 18.3248 1.12531L3.424 16.0261C3.18968 16.2604 3.18968 16.6403 3.424 16.8746C3.65831 17.1089 4.03821 17.1089 4.27253 16.8746Z" fill="#8E8E93"/>
</svg>
