<svg width="86" height="48" viewBox="0 0 86 48" fill="none" xmlns="http://www.w3.org/2000/svg">
<path d="M58.5 23.8779C59.1627 23.8779 59.7 23.3406 59.7 22.6779C59.7 22.0151 59.1627 21.4779 58.5 21.4779V23.8779ZM49.9321 21.4779C49.2694 21.4779 48.7321 22.0151 48.7321 22.6779C48.7321 23.3406 49.2694 23.8779 49.9321 23.8779V21.4779ZM53.0161 26.9613C53.0161 27.6241 53.5533 28.1613 54.2161 28.1613C54.8788 28.1613 55.4161 27.6241 55.4161 26.9613H53.0161ZM55.4161 18.394C55.4161 17.7313 54.8788 17.194 54.2161 17.194C53.5533 17.194 53.0161 17.7313 53.0161 18.394H55.4161ZM58.5 22.6779V21.4779H54.2161V22.6779V23.8779H58.5V22.6779ZM54.2161 22.6779V21.4779H49.9321V22.6779V23.8779H54.2161V22.6779ZM54.2161 26.9613H55.4161V22.6779H54.2161H53.0161V26.9613H54.2161ZM54.2161 22.6779H55.4161V18.394H54.2161H53.0161V22.6779H54.2161ZM48.1504 35V33.8H28.6093V35V36.2H48.1504V35ZM28.6093 35V33.8C28.6411 33.8 28.6706 33.8078 28.6925 33.8182C28.713 33.8279 28.7212 33.837 28.7212 33.8371C28.7213 33.8372 28.7158 33.8308 28.7102 33.816C28.7049 33.8019 28.7 33.7812 28.7 33.7538H27.5H26.3C26.3 34.9697 27.2065 36.2 28.6093 36.2V35ZM49.2598 33.7538H48.0598C48.0598 33.7812 48.0549 33.8019 48.0495 33.8161C48.044 33.8308 48.0385 33.8372 48.0385 33.8371C48.0386 33.8371 48.0467 33.8279 48.0672 33.8182C48.0892 33.8078 48.1187 33.8 48.1504 33.8V35V36.2C49.5533 36.2 50.4598 34.9697 50.4598 33.7538H49.2598ZM38.3799 25.9206V27.1206C41.8536 27.1206 44.2842 27.9553 45.8185 29.159C47.3274 30.3428 48.0598 31.949 48.0598 33.7538H49.2598H50.4598C50.4598 31.2325 49.4047 28.9221 47.2999 27.2708C45.2206 25.6395 42.2112 24.7206 38.3799 24.7206V25.9206ZM38.3799 25.9206V24.7206C34.5485 24.7206 31.5392 25.6395 29.4598 27.2708C27.3551 28.9221 26.3 31.2325 26.3 33.7538H27.5H28.7C28.7 31.949 29.4323 30.3428 30.9412 29.159C32.4756 27.9553 34.9062 27.1206 38.3799 27.1206V25.9206ZM42.4598 17.125H41.2598C41.2598 18.7529 39.958 20.05 38.3799 20.05V21.25V22.45C41.3083 22.45 43.6598 20.0535 43.6598 17.125H42.4598ZM38.3799 21.25V20.05C36.8017 20.05 35.4999 18.7529 35.4999 17.125H34.2999H33.0999C33.0999 20.0535 35.4514 22.45 38.3799 22.45V21.25ZM34.2999 17.125H35.4999C35.4999 15.4971 36.8017 14.2 38.3799 14.2V13V11.8C35.4514 11.8 33.0999 14.1965 33.0999 17.125H34.2999ZM38.3799 13V14.2C39.958 14.2 41.2598 15.4971 41.2598 17.125H42.4598H43.6598C43.6598 14.1965 41.3083 11.8 38.3799 11.8V13Z" fill="#3E4E5E"/>
</svg>
