<svg width="19" height="18" viewBox="0 0 19 18" fill="none" xmlns="http://www.w3.org/2000/svg">
<path d="M11.8529 13V15C11.8529 15.5304 11.6546 16.0391 11.3016 16.4142C10.9486 16.7893 10.4698 17 9.97059 17L3.38235 17C2.88312 17 2.40434 16.7893 2.05133 16.4142C1.69832 16.0391 1.5 15.5304 1.5 15L1.5 3C1.5 2.46957 1.69832 1.96086 2.05133 1.58579C2.40434 1.21071 2.88312 1 3.38235 1L9.97059 1C10.4698 1 10.9486 1.21071 11.3016 1.58579C11.6546 1.96086 11.8529 2.46957 11.8529 3V5M6.20588 9L17.5 9M17.5 9L14.6765 12M17.5 9L14.6765 6" stroke="#3E4E5E" stroke-width="1.4" stroke-linecap="round" stroke-linejoin="round"/>
</svg>
