<svg width="21" height="16" viewBox="0 0 21 16" fill="none" xmlns="http://www.w3.org/2000/svg">
<path d="M10.5 5.2C9.74052 5.2 9.01214 5.495 8.4751 6.0201C7.93807 6.5452 7.63636 7.25739 7.63636 8C7.63636 8.74261 7.93807 9.4548 8.4751 9.9799C9.01214 10.505 9.74052 10.8 10.5 10.8C11.2595 10.8 11.9879 10.505 12.5249 9.9799C13.0619 9.4548 13.3636 8.74261 13.3636 8C13.3636 7.25739 13.0619 6.5452 12.5249 6.0201C11.9879 5.495 11.2595 5.2 10.5 5.2ZM10.5 12.6667C9.23419 12.6667 8.02023 12.175 7.12517 11.2998C6.23011 10.4247 5.72727 9.23768 5.72727 8C5.72727 6.76232 6.23011 5.57534 7.12517 4.70017C8.02023 3.825 9.23419 3.33333 10.5 3.33333C11.7658 3.33333 12.9798 3.825 13.8748 4.70017C14.7699 5.57534 15.2727 6.76232 15.2727 8C15.2727 9.23768 14.7699 10.4247 13.8748 11.2998C12.9798 12.175 11.7658 12.6667 10.5 12.6667ZM10.5 1C5.72727 1 1.65136 3.90267 0 8C1.65136 12.0973 5.72727 15 10.5 15C15.2727 15 19.3486 12.0973 21 8C19.3486 3.90267 15.2727 1 10.5 1Z" fill="#8E8E93"/>
</svg>
