<svg width="340" height="68" viewBox="0 0 340 68" fill="none" xmlns="http://www.w3.org/2000/svg">
<rect x="132.076" width="207.923" height="68" rx="7.84615" fill="#EDF7FD"/>
<path d="M282.349 43.8806C282.349 48.2033 281.365 51.3527 279.397 53.3287C277.47 55.2636 274.354 56.2311 270.049 56.2311H257.749C253.444 56.2311 250.308 55.2636 248.339 53.3287C246.412 51.3527 245.449 48.2033 245.449 43.8806V38.0142H239.914V55.6136H228.844V12.3871H239.914V29.3689H245.449V24.12C245.449 19.7973 246.412 16.6685 248.339 14.7336C250.308 12.7576 253.444 11.7695 257.749 11.7695H270.049C274.354 11.7695 277.47 12.7576 279.397 14.7336C281.365 16.6685 282.349 19.7973 282.349 24.12V43.8806ZM271.279 24.12C271.279 21.6499 270.049 20.4148 267.589 20.4148H260.209C257.749 20.4148 256.519 21.6499 256.519 24.12V43.8806C256.519 46.3507 257.749 47.5858 260.209 47.5858H267.589C270.049 47.5858 271.279 46.3507 271.279 43.8806V24.12Z" fill="#BBDBF2"/>
<path d="M301.398 46.6595C301.193 49.6236 300.25 51.9702 298.569 53.6992C296.888 55.3871 294.817 56.2311 292.357 56.2311C289.897 56.2311 287.581 56.0252 285.408 55.6136V47.277H288.175C288.954 47.277 289.59 47.0094 290.082 46.4742C290.615 45.939 290.902 45.2804 290.943 44.4982L292.788 12.3871H326.921V55.6136H315.851V21.0324H302.935L301.398 46.6595Z" fill="#BBDBF2"/>
<rect width="164.769" height="68" rx="7.84615" fill="#4DABEE"/>
<path d="M130.769 39.2307H143.846V10.462H130.769V39.2307Z" fill="white"/>
<path d="M143.846 57.5384H113.481C108.61 57.5384 104.615 53.326 104.615 48.3845V10.4614H117.692V47.0768H143.846V57.5384Z" fill="white"/>
<path d="M97.7479 11.1392L74.8876 33.9995L75.3671 34.479L97.7469 56.8599H85.2753L81.5819 53.2779H81.5809L66.0624 37.6421V29.064L85.2684 11.1392H97.7479Z" fill="white" stroke="white" stroke-width="1.35631"/>
<path d="M34 28.7691H20.9231V57.5378H34V28.7691Z" fill="white"/>
<path d="M20.9231 10.4614H51.288C56.1594 10.4614 60.1539 14.6738 60.1539 19.6153V57.5384H47.0769V20.923H20.9231V10.4614Z" fill="white"/>
</svg>
