<svg width="260" height="52" viewBox="0 0 260 52" fill="none" xmlns="http://www.w3.org/2000/svg">
<rect x="101" width="159" height="52" rx="6" fill="#EDF7FD"/>
<path d="M215.916 33.5556C215.916 36.8611 215.164 39.2694 213.659 40.7806C212.185 42.2602 209.802 43 206.51 43H197.104C193.812 43 191.413 42.2602 189.909 40.7806C188.435 39.2694 187.698 36.8611 187.698 33.5556V29.0694H183.465V42.5278H175V9.47222H183.465V22.4583H187.698V18.4444C187.698 15.1389 188.435 12.7463 189.909 11.2667C191.413 9.75556 193.812 9 197.104 9H206.51C209.802 9 212.185 9.75556 213.659 11.2667C215.164 12.7463 215.916 15.1389 215.916 18.4444V33.5556ZM207.451 18.4444C207.451 16.5556 206.51 15.6111 204.629 15.6111H198.985C197.104 15.6111 196.164 16.5556 196.164 18.4444V33.5556C196.164 35.4444 197.104 36.3889 198.985 36.3889H204.629C206.51 36.3889 207.451 35.4444 207.451 33.5556V18.4444Z" fill="#BBDBF2"/>
<path d="M230.483 35.6806C230.326 37.9472 229.605 39.7417 228.319 41.0639C227.034 42.3546 225.45 43 223.569 43C221.688 43 219.916 42.8426 218.255 42.5278V36.1528H220.371C220.967 36.1528 221.453 35.9481 221.829 35.5389C222.237 35.1296 222.456 34.6259 222.487 34.0278L223.898 9.47222H250V42.5278H241.535V16.0833H231.658L230.483 35.6806Z" fill="#BBDBF2"/>
<rect width="126" height="52" rx="6" fill="#4DABEE"/>
<path d="M100 30H110V8.00047H100V30Z" fill="white"/>
<path d="M110 44H86.7797C83.0546 44 80 40.7788 80 37V8H90V36H110V44Z" fill="white"/>
<path d="M74.749 8.51855L57.6338 25.6338L57.2666 26L57.6338 26.3662L74.749 43.4814H65.21L62.3867 40.7422L50.5186 28.7861V22.2246L65.2041 8.51855H74.749Z" fill="white" stroke="white" stroke-width="1.03718"/>
<path d="M26 22H16V43.9995H26V22Z" fill="white"/>
<path d="M16 8H39.2203C42.9454 8 46 11.2212 46 15V44H36V16H16V8Z" fill="white"/>
</svg>
